<mxfile host="app.diagrams.net" modified="2023-04-28T15:05:10.444Z" agent="Mozilla/5.0 (Macintosh; Intel Mac OS X 10_15_7) AppleWebKit/605.1.15 (KHTML, like Gecko) Version/16.2 Safari/605.1.15" etag="uFertYHw4-exxZsue9aJ" version="21.2.3" type="github">
  <diagram name="Page-1" id="OnwrckxRcBizf5cXsuB1">
    <mxGraphModel dx="594" dy="534" grid="1" gridSize="10" guides="1" tooltips="1" connect="1" arrows="1" fold="1" page="1" pageScale="1" pageWidth="827" pageHeight="1169" math="0" shadow="0">
      <root>
        <mxCell id="0" />
        <mxCell id="1" parent="0" />
        <mxCell id="h-IDH9eEdeks8b3zu1-w-1" value="" style="rounded=1;whiteSpace=wrap;html=1;arcSize=4;fillColor=#bac8d3;strokeColor=#23445d;" vertex="1" parent="1">
          <mxGeometry x="80" y="40" width="200" height="240" as="geometry" />
        </mxCell>
        <mxCell id="h-IDH9eEdeks8b3zu1-w-2" value="" style="rounded=1;whiteSpace=wrap;html=1;fillColor=#647687;fontColor=#ffffff;strokeColor=#314354;" vertex="1" parent="1">
          <mxGeometry x="90" y="80" width="180" height="40" as="geometry" />
        </mxCell>
        <mxCell id="h-IDH9eEdeks8b3zu1-w-3" value="" style="rounded=1;whiteSpace=wrap;html=1;fillColor=#647687;fontColor=#ffffff;strokeColor=#314354;" vertex="1" parent="1">
          <mxGeometry x="90" y="130" width="180" height="40" as="geometry" />
        </mxCell>
        <mxCell id="h-IDH9eEdeks8b3zu1-w-4" value="" style="rounded=1;whiteSpace=wrap;html=1;fillColor=#647687;fontColor=#ffffff;strokeColor=#314354;" vertex="1" parent="1">
          <mxGeometry x="90" y="180" width="180" height="40" as="geometry" />
        </mxCell>
        <mxCell id="h-IDH9eEdeks8b3zu1-w-5" value="" style="ellipse;whiteSpace=wrap;html=1;aspect=fixed;fillColor=#60a917;fontColor=#ffffff;strokeColor=#2D7600;" vertex="1" parent="1">
          <mxGeometry x="100" y="90" width="20" height="20" as="geometry" />
        </mxCell>
        <mxCell id="h-IDH9eEdeks8b3zu1-w-6" value="" style="ellipse;whiteSpace=wrap;html=1;aspect=fixed;fillColor=#60a917;fontColor=#ffffff;strokeColor=#2D7600;" vertex="1" parent="1">
          <mxGeometry x="130" y="90" width="20" height="20" as="geometry" />
        </mxCell>
        <mxCell id="h-IDH9eEdeks8b3zu1-w-8" value="" style="ellipse;whiteSpace=wrap;html=1;aspect=fixed;fillColor=#60a917;fontColor=#ffffff;strokeColor=#2D7600;" vertex="1" parent="1">
          <mxGeometry x="160" y="90" width="20" height="20" as="geometry" />
        </mxCell>
        <mxCell id="h-IDH9eEdeks8b3zu1-w-9" value="" style="ellipse;whiteSpace=wrap;html=1;aspect=fixed;fillColor=#60a917;fontColor=#ffffff;strokeColor=#2D7600;direction=south;" vertex="1" parent="1">
          <mxGeometry x="100" y="140" width="20" height="20" as="geometry" />
        </mxCell>
        <mxCell id="h-IDH9eEdeks8b3zu1-w-10" value="" style="ellipse;whiteSpace=wrap;html=1;aspect=fixed;fillColor=#60a917;fontColor=#ffffff;strokeColor=#2D7600;" vertex="1" parent="1">
          <mxGeometry x="130" y="190" width="20" height="20" as="geometry" />
        </mxCell>
        <mxCell id="h-IDH9eEdeks8b3zu1-w-11" value="" style="ellipse;whiteSpace=wrap;html=1;aspect=fixed;fillColor=#60a917;fontColor=#ffffff;strokeColor=#2D7600;" vertex="1" parent="1">
          <mxGeometry x="160" y="140" width="20" height="20" as="geometry" />
        </mxCell>
        <mxCell id="h-IDH9eEdeks8b3zu1-w-12" value="" style="ellipse;whiteSpace=wrap;html=1;aspect=fixed;fillColor=#e3c800;fontColor=#000000;strokeColor=#B09500;" vertex="1" parent="1">
          <mxGeometry x="160" y="190" width="20" height="20" as="geometry" />
        </mxCell>
        <mxCell id="h-IDH9eEdeks8b3zu1-w-13" value="" style="ellipse;whiteSpace=wrap;html=1;aspect=fixed;fillColor=#e3c800;fontColor=#000000;strokeColor=#B09500;" vertex="1" parent="1">
          <mxGeometry x="130" y="140" width="20" height="20" as="geometry" />
        </mxCell>
        <mxCell id="h-IDH9eEdeks8b3zu1-w-14" value="" style="ellipse;whiteSpace=wrap;html=1;aspect=fixed;fillColor=#60a917;fontColor=#ffffff;strokeColor=#2D7600;" vertex="1" parent="1">
          <mxGeometry x="100" y="190" width="20" height="20" as="geometry" />
        </mxCell>
      </root>
    </mxGraphModel>
  </diagram>
</mxfile>
